<?xml version="1.0" encoding="iso-8859-1"?>
<!-- Uploaded to: SVG Repo, www.svgrepo.com, Generator: SVG Repo Mixer Tools -->
<svg fill="#000000" height="800px" width="800px" version="1.1" id="Capa_1" xmlns="http://www.w3.org/2000/svg" xmlns:xlink="http://www.w3.org/1999/xlink" 
	 viewBox="0 0 463 463" xml:space="preserve">
<g>
	<path d="M231.5,128C174.43,128,128,174.43,128,231.5S174.43,335,231.5,335S335,288.57,335,231.5S288.57,128,231.5,128z M231.5,320
		c-48.799,0-88.5-39.701-88.5-88.5s39.701-88.5,88.5-88.5s88.5,39.701,88.5,88.5S280.299,320,231.5,320z"/>
	<path d="M231.5,111c4.143,0,7.5-3.357,7.5-7.5v-96c0-4.143-3.357-7.5-7.5-7.5S224,3.357,224,7.5v96
		C224,107.643,227.357,111,231.5,111z"/>
	<path d="M231.5,352c-4.143,0-7.5,3.357-7.5,7.5v96c0,4.143,3.357,7.5,7.5,7.5s7.5-3.357,7.5-7.5v-96
		C239,355.357,235.643,352,231.5,352z"/>
	<path d="M111,231.5c0-4.143-3.357-7.5-7.5-7.5h-96c-4.143,0-7.5,3.357-7.5,7.5s3.357,7.5,7.5,7.5h96
		C107.643,239,111,235.643,111,231.5z"/>
	<path d="M455.5,224h-96c-4.143,0-7.5,3.357-7.5,7.5s3.357,7.5,7.5,7.5h96c4.143,0,7.5-3.357,7.5-7.5S459.643,224,455.5,224z"/>
	<path d="M171.25,335.856c-3.589-2.071-8.175-0.843-10.245,2.745l-16,27.713c-2.071,3.587-0.842,8.174,2.745,10.245
		c1.182,0.682,2.471,1.006,3.743,1.006c2.592,0,5.113-1.345,6.502-3.751l16-27.713C176.066,342.515,174.837,337.928,171.25,335.856z
		"/>
	<path d="M139.25,391.282c-3.589-2.07-8.175-0.843-10.245,2.745l-8,13.856c-2.071,3.587-0.842,8.174,2.745,10.245
		c1.182,0.682,2.471,1.006,3.743,1.006c2.592,0,5.113-1.345,6.502-3.751l8-13.856C144.066,397.94,142.837,393.354,139.25,391.282z"
		/>
	<path d="M291.75,127.144c1.182,0.682,2.471,1.006,3.743,1.006c2.592,0,5.113-1.345,6.502-3.751l16-27.713
		c2.071-3.587,0.842-8.174-2.745-10.245c-3.589-2.07-8.175-0.843-10.245,2.745l-16,27.713
		C286.934,120.485,288.163,125.072,291.75,127.144z"/>
	<path d="M323.75,71.719c1.182,0.682,2.471,1.006,3.743,1.006c2.592,0,5.113-1.345,6.502-3.751l8-13.856
		c2.071-3.587,0.842-8.174-2.745-10.245c-3.589-2.07-8.175-0.843-10.245,2.745l-8,13.856
		C318.934,65.061,320.163,69.647,323.75,71.719z"/>
	<path d="M301.995,338.602c-2.07-3.588-6.66-4.815-10.245-2.745c-3.587,2.071-4.816,6.658-2.745,10.245l16,27.713
		c1.389,2.406,3.91,3.751,6.502,3.751c1.272,0,2.563-0.324,3.743-1.006c3.587-2.071,4.816-6.658,2.745-10.245L301.995,338.602z"/>
	<path d="M333.995,394.027c-2.07-3.588-6.659-4.814-10.245-2.745c-3.587,2.071-4.816,6.658-2.745,10.245l8,13.856
		c1.389,2.406,3.91,3.751,6.502,3.751c1.272,0,2.563-0.324,3.743-1.006c3.587-2.071,4.816-6.658,2.745-10.245L333.995,394.027z"/>
	<path d="M161.005,124.398c1.389,2.406,3.91,3.751,6.502,3.751c1.272,0,2.563-0.324,3.743-1.006
		c3.587-2.071,4.816-6.658,2.745-10.245l-16-27.713c-2.07-3.588-6.659-4.815-10.245-2.745c-3.587,2.071-4.816,6.658-2.745,10.245
		L161.005,124.398z"/>
	<path d="M129.005,68.974c1.389,2.406,3.91,3.751,6.502,3.751c1.272,0,2.563-0.324,3.743-1.006
		c3.587-2.071,4.816-6.658,2.745-10.245l-8-13.856c-2.07-3.588-6.659-4.814-10.245-2.745c-3.587,2.071-4.816,6.658-2.745,10.245
		L129.005,68.974z"/>
	<path d="M373.814,305.005l-27.713-16c-3.59-2.071-8.175-0.843-10.245,2.745c-2.071,3.587-0.842,8.174,2.745,10.245l27.713,16
		c1.182,0.682,2.471,1.006,3.743,1.006c2.592,0,5.113-1.345,6.502-3.751C378.631,311.663,377.401,307.076,373.814,305.005z"/>
	<path d="M415.383,329.005l-13.855-8c-3.586-2.07-8.174-0.843-10.245,2.745c-2.071,3.587-0.842,8.174,2.745,10.245l13.855,8
		c1.181,0.682,2.471,1.006,3.743,1.006c2.592,0,5.112-1.345,6.502-3.751C420.199,335.663,418.97,331.076,415.383,329.005z"/>
	<path d="M89.186,157.995l27.713,16c1.182,0.682,2.471,1.006,3.743,1.006c2.592,0,5.113-1.345,6.502-3.751
		c2.071-3.587,0.842-8.174-2.745-10.245l-27.713-16c-3.589-2.071-8.175-0.843-10.245,2.745
		C84.369,151.337,85.599,155.924,89.186,157.995z"/>
	<path d="M47.617,133.995l13.855,8c1.181,0.682,2.471,1.006,3.743,1.006c2.592,0,5.112-1.345,6.502-3.751
		c2.071-3.587,0.842-8.174-2.745-10.245l-13.855-8c-3.586-2.07-8.174-0.844-10.245,2.745
		C42.801,127.337,44.03,131.924,47.617,133.995z"/>
	<path d="M335.856,171.25c1.389,2.406,3.91,3.751,6.502,3.751c1.272,0,2.563-0.324,3.743-1.006l27.713-16
		c3.587-2.071,4.816-6.658,2.745-10.245c-2.07-3.588-6.659-4.815-10.245-2.745l-27.713,16
		C335.015,163.076,333.785,167.663,335.856,171.25z"/>
	<path d="M397.784,143.001c1.272,0,2.563-0.324,3.743-1.006l13.855-8c3.587-2.071,4.816-6.658,2.745-10.245
		c-2.072-3.588-6.659-4.814-10.245-2.745l-13.855,8c-3.587,2.071-4.816,6.658-2.745,10.245
		C392.672,141.656,395.192,143.001,397.784,143.001z"/>
	<path d="M127.144,291.75c-2.07-3.588-6.66-4.815-10.245-2.745l-27.713,16c-3.587,2.071-4.816,6.658-2.745,10.245
		c1.389,2.406,3.91,3.751,6.502,3.751c1.272,0,2.563-0.324,3.743-1.006l27.713-16C127.985,299.924,129.215,295.337,127.144,291.75z"
		/>
	<path d="M61.473,321.005l-13.855,8c-3.587,2.071-4.816,6.658-2.745,10.245c1.39,2.406,3.91,3.751,6.502,3.751
		c1.272,0,2.563-0.324,3.743-1.006l13.855-8c3.587-2.071,4.816-6.658,2.745-10.245C69.646,320.162,65.059,318.936,61.473,321.005z"
		/>
</g>
</svg>